# xmcd CD database file
#
# Track frame offsets:
#	150
#	12508
#	30694
#	46441
#	66436
#	93473
#	123431
#	140673
#	155628
#	170135
#	194406
#	206631
#	221863
#	238234
#	253812
#	269941
#	286926
#	314821
#	330187
#
# Disc length: 4585 seconds
#
# Revision: 0
# Processed by: cddbd v1.5.2PL0 Copyright (c) Steve Scherf et al.
# Submitted via: CDex 1.70beta2
#
DISCID=3f11e713
DTITLE=Adderley, Nat - Introducing Nat Adderley -  To The Ivy League From Nat
DYEAR=1956
DGENRE=Jazz
TTITLE0=Watermelon
TTITLE1=Little Joanie Walks
TTITLE2=Two Brothers
TTITLE3=I Should Care
TTITLE4=Crazy Baby
TTITLE5=New Arrival
TTITLE6=Sundance
TTITLE7=Fort Lauderdale
TTITLE8=Friday Nite
TTITLE9=Blues For Bohemia
TTITLE10=Room
TTITLE11=Sam's Tune
TTITLE12=Bimni
TTITLE13=The Fat Man
TTITLE14=Sermonette
TTITLE15=Jackleg
TTITLE16=The Nearness Of You
TTITLE17=Rattler's Groove
TTITLE18=Hayseed
EXTD=YEAR: 1956
EXTT0=
EXTT1=
EXTT2=
EXTT3=
EXTT4=
EXTT5=
EXTT6=
EXTT7=
EXTT8=
EXTT9=
EXTT10=
EXTT11=
EXTT12=
EXTT13=
EXTT14=
EXTT15=
EXTT16=
EXTT17=
EXTT18=
PLAYORDER=
